# Blender v2.67 (sub 0) OBJ File: ''
# www.blender.org
o Cylinder
v -0.283654 0.925412 -0.500000
v 0.105815 0.953504 -0.500000
v 0.297677 0.909193 -0.500000
v 0.477736 0.827751 -0.500000
v 0.953741 0.211792 -0.500000
v 0.943757 -0.379335 -0.500000
v 0.865524 -0.561645 -0.500000
v 0.447401 -0.968167 -0.500000
v 0.264761 -1.039491 -0.500000
v 0.071584 -1.073059 -0.500000
v -0.496629 -0.941829 -0.500000
v -0.657966 -0.826385 -0.500000
v -0.090476 0.958980 -0.500000
v 0.985358 -0.184640 -0.500000
v -0.316569 -1.023272 -0.500000
v -0.631375 0.747751 -0.500000
v 0.639073 0.712306 -0.500000
v 0.775488 0.567296 -0.500000
v 0.881739 0.398293 -0.500000
v 0.988729 0.014959 -0.500000
v 0.753668 -0.724563 -0.500000
v 0.612485 -0.861829 -0.500000
v -0.124707 -1.067583 -0.500000
v -0.772559 0.610485 -0.500000
v -0.466292 0.854088 -0.500000
v -0.002987 -0.058363 -0.500000
v -0.794381 -0.681374 -0.500000
v 0.775488 0.567296 0.500000
v 0.865524 -0.561645 0.500000
v 0.753668 -0.724563 0.500000
v 0.105815 0.953504 -0.000000
v -0.090476 0.958980 -0.000000
v -0.283654 0.925412 -0.000000
v -0.090476 0.958980 0.500000
v 0.105815 0.953504 0.500000
v 0.297677 0.909193 0.500000
v 0.639073 0.712306 0.500000
v 0.881739 0.398293 0.500000
v 0.953741 0.211792 0.500000
v 0.988729 0.014960 0.500000
v 0.264761 -1.039491 0.500000
v 0.071584 -1.073059 0.500000
v -0.316569 -1.023272 0.500000
v -0.496629 -0.941829 0.500000
v -0.657966 -0.826384 0.500000
v -0.631375 0.747751 0.500000
v -0.283654 0.925412 0.500000
v 0.477736 0.827751 0.500000
v 0.985358 -0.184640 0.500000
v 0.943757 -0.379335 0.500000
v 0.612485 -0.861829 0.500000
v 0.447401 -0.968167 0.500000
v -0.124707 -1.067583 0.500000
v -0.794381 -0.681374 0.500000
v -0.772559 0.610485 0.500000
v -0.466292 0.854088 0.500000
v -0.002987 -0.058363 0.500000
v 0.297677 0.909193 -0.000000
v 0.477736 0.827751 -0.000000
v 0.639073 0.712306 -0.000000
v 0.775488 0.567296 -0.000000
v 0.881739 0.398293 -0.000000
v 0.953741 0.211792 -0.000000
v 0.988729 0.014959 0.000000
v 0.985358 -0.184640 0.000000
v 0.943757 -0.379335 0.000000
v 0.865524 -0.561645 0.000000
v 0.753668 -0.724563 0.000000
v 0.612485 -0.861829 0.000000
v 0.447401 -0.968167 0.000000
v 0.264761 -1.039491 0.000000
v 0.071584 -1.073059 0.000000
v -0.124707 -1.067583 0.000000
v -0.316569 -1.023272 0.000000
v -0.496629 -0.941829 0.000000
v -0.657966 -0.826384 0.000000
v -0.794381 -0.681374 0.000000
v -0.772559 0.610485 -0.000000
v -0.631375 0.747751 -0.000000
v -0.466292 0.854088 -0.000000
vn 0.225029 0.974352 -0.000000
vn 0.412114 0.911132 -0.000000
vn 0.918963 -0.394343 0.000000
vn 0.363763 -0.931492 0.000000
vn 0.171205 -0.985235 0.000000
vn -0.581919 -0.813247 0.000000
vn 0.824395 -0.566015 0.000000
vn -0.000000 -0.000000 -1.000000
vn -0.171206 0.985235 -0.000000
vn 0.027888 0.999611 -0.000000
vn 0.581918 0.813247 -0.000000
vn 0.728364 0.685191 -0.000000
vn 0.846592 0.532243 -0.000000
vn 0.932890 0.360162 -0.000000
vn 0.984566 0.175011 -0.000000
vn 0.999857 -0.016889 0.000000
vn 0.977925 -0.208956 0.000000
vn 0.697090 -0.716984 0.000000
vn 0.541524 -0.840685 0.000000
vn -0.027888 -0.999611 -0.000000
vn -0.225029 -0.974352 -0.000000
vn -0.412114 -0.911132 -0.000000
vn -0.728364 -0.685190 0.000000
vn -0.697089 0.716985 -0.000000
vn -0.363762 0.931492 -0.000000
vn -0.541523 0.840686 -0.000000
vn -0.000000 -0.000000 1.000000
vn 0.363763 -0.931491 0.000000
vn -0.412115 -0.911132 0.000000
vn -0.655986 -0.754773 0.000000
vn -0.618559 0.785738 -0.000000
vn -0.000000 0.000001 -1.000000
vn -0.000001 -0.000001 -1.000000
vn -0.000001 -0.000000 -1.000000
vn 0.541525 -0.840685 0.000000
vn -0.000001 0.000001 1.000000
vn -0.000001 0.000000 1.000000
vn 0.728363 0.685191 -0.000000
s off
f 2//1 31//1 58//1
f 3//2 58//2 59//2
f 6//3 66//3 67//3
f 8//4 70//4 71//4
f 9//5 71//5 72//5
f 11//6 75//6 12//6
f 29//7 30//7 68//7
f 26//8 12//8 27//8
f 1//9 33//9 13//9
f 13//10 32//10 31//10
f 4//11 59//11 60//11
f 17//12 60//12 61//12
f 18//13 61//13 62//13
f 19//14 62//14 63//14
f 5//15 63//15 64//15
f 20//16 64//16 65//16
f 14//17 65//17 66//17
f 7//7 67//7 68//7
f 21//18 68//18 69//18
f 22//19 69//19 70//19
f 10//20 72//20 23//20
f 23//21 73//21 15//21
f 15//22 74//22 11//22
f 12//23 76//23 27//23
f 24//24 78//24 16//24
f 25//25 80//25 1//25
f 16//26 79//26 25//26
f 57//27 46//27 55//27
f 47//9 34//9 33//9
f 34//10 35//10 31//10
f 35//1 36//1 58//1
f 36//2 48//2 59//2
f 48//11 37//11 60//11
f 37//12 28//12 61//12
f 28//13 38//13 62//13
f 38//14 39//14 63//14
f 39//15 40//15 64//15
f 40//16 49//16 65//16
f 49//17 50//17 66//17
f 50//3 29//3 67//3
f 30//18 51//18 69//18
f 51//19 52//19 70//19
f 52//28 41//28 71//28
f 41//5 42//5 72//5
f 42//20 53//20 72//20
f 53//21 43//21 73//21
f 43//29 44//29 74//29
f 44//6 45//6 75//6
f 45//23 54//23 76//23
f 55//24 46//24 78//24
f 56//25 47//25 80//25
f 46//26 56//26 79//26
f 55//30 24//30 57//30
f 57//31 26//31 54//31
f 3//1 2//1 58//1
f 4//2 3//2 59//2
f 7//3 6//3 67//3
f 9//4 8//4 71//4
f 10//5 9//5 72//5
f 75//6 76//6 12//6
f 67//7 29//7 68//7
f 26//8 11//8 12//8
f 26//8 15//8 11//8
f 9//32 22//32 8//32
f 9//8 21//8 22//8
f 9//8 7//8 21//8
f 9//8 6//8 7//8
f 9//8 14//8 6//8
f 19//33 17//33 18//33
f 20//34 19//34 5//34
f 20//8 17//8 19//8
f 1//8 13//8 25//8
f 13//8 2//8 25//8
f 2//8 3//8 25//8
f 3//8 4//8 25//8
f 4//8 17//8 25//8
f 17//8 20//8 25//8
f 20//8 14//8 25//8
f 16//8 26//8 24//8
f 14//8 9//8 25//8
f 9//8 10//8 25//8
f 23//8 15//8 26//8
f 10//8 23//8 26//8
f 25//27 10//27 26//27
f 16//8 25//8 26//8
f 33//9 32//9 13//9
f 2//10 13//10 31//10
f 17//11 4//11 60//11
f 18//12 17//12 61//12
f 19//13 18//13 62//13
f 5//14 19//14 63//14
f 20//15 5//15 64//15
f 14//16 20//16 65//16
f 6//17 14//17 66//17
f 21//7 7//7 68//7
f 22//18 21//18 69//18
f 8//35 22//35 70//35
f 72//20 73//20 23//20
f 73//21 74//21 15//21
f 74//29 75//29 11//29
f 76//23 77//23 27//23
f 78//24 79//24 16//24
f 80//25 33//25 1//25
f 79//26 80//26 25//26
f 56//27 46//27 57//27
f 56//8 57//8 54//8
f 50//36 30//36 29//36
f 39//37 49//37 40//37
f 39//27 50//27 49//27
f 37//37 38//37 28//37
f 37//27 39//27 38//27
f 37//27 50//27 39//27
f 47//27 56//27 34//27
f 35//27 48//27 36//27
f 34//27 48//27 35//27
f 56//27 54//27 34//27
f 54//27 45//27 34//27
f 45//27 44//27 34//27
f 44//27 43//27 34//27
f 30//27 52//27 51//27
f 43//27 53//27 34//27
f 30//27 41//27 52//27
f 53//27 42//27 34//27
f 42//27 41//27 30//27
f 34//27 42//27 48//27
f 42//27 30//27 48//27
f 30//27 50//27 48//27
f 50//27 37//27 48//27
f 34//9 32//9 33//9
f 32//10 34//10 31//10
f 31//1 35//1 58//1
f 58//2 36//2 59//2
f 59//11 48//11 60//11
f 60//38 37//38 61//38
f 61//13 28//13 62//13
f 62//14 38//14 63//14
f 63//15 39//15 64//15
f 64//16 40//16 65//16
f 65//17 49//17 66//17
f 66//3 50//3 67//3
f 68//18 30//18 69//18
f 69//19 51//19 70//19
f 70//4 52//4 71//4
f 71//5 41//5 72//5
f 53//20 73//20 72//20
f 43//21 74//21 73//21
f 44//29 75//29 74//29
f 45//6 76//6 75//6
f 54//23 77//23 76//23
f 46//24 79//24 78//24
f 47//25 33//25 80//25
f 56//26 80//26 79//26
f 24//30 26//30 57//30
f 26//31 27//31 54//31
